<mxfile host="app.diagrams.net" agent="Mozilla/5.0 (Windows NT 10.0; Win64; x64) AppleWebKit/537.36 (KHTML, like Gecko) Chrome/130.0.0.0 Safari/537.36" version="24.8.6">
  <diagram name="Trang-1" id="Q0rlCdELTQmbJfl-ldvB">
    <mxGraphModel dx="1050" dy="522" grid="1" gridSize="10" guides="1" tooltips="1" connect="1" arrows="1" fold="1" page="1" pageScale="1" pageWidth="827" pageHeight="1169" math="0" shadow="0">
      <root>
        <mxCell id="0" />
        <mxCell id="1" parent="0" />
        <mxCell id="4q6jls_4rTKLcypTDFWj-1" value="" style="edgeStyle=orthogonalEdgeStyle;rounded=0;orthogonalLoop=1;jettySize=auto;html=1;" edge="1" parent="1" source="4q6jls_4rTKLcypTDFWj-2" target="4q6jls_4rTKLcypTDFWj-4">
          <mxGeometry relative="1" as="geometry" />
        </mxCell>
        <mxCell id="4q6jls_4rTKLcypTDFWj-2" value="start" style="ellipse;whiteSpace=wrap;html=1;" vertex="1" parent="1">
          <mxGeometry x="414" y="110" width="120" height="80" as="geometry" />
        </mxCell>
        <mxCell id="4q6jls_4rTKLcypTDFWj-3" value="" style="edgeStyle=orthogonalEdgeStyle;rounded=0;orthogonalLoop=1;jettySize=auto;html=1;" edge="1" parent="1" source="4q6jls_4rTKLcypTDFWj-4" target="4q6jls_4rTKLcypTDFWj-7">
          <mxGeometry relative="1" as="geometry" />
        </mxCell>
        <mxCell id="4q6jls_4rTKLcypTDFWj-4" value="input N" style="whiteSpace=wrap;html=1;" vertex="1" parent="1">
          <mxGeometry x="414" y="280" width="120" height="60" as="geometry" />
        </mxCell>
        <mxCell id="4q6jls_4rTKLcypTDFWj-5" value="" style="edgeStyle=orthogonalEdgeStyle;rounded=0;orthogonalLoop=1;jettySize=auto;html=1;" edge="1" parent="1" source="4q6jls_4rTKLcypTDFWj-7">
          <mxGeometry relative="1" as="geometry">
            <mxPoint x="310" y="450" as="targetPoint" />
          </mxGeometry>
        </mxCell>
        <mxCell id="4q6jls_4rTKLcypTDFWj-6" value="" style="edgeStyle=orthogonalEdgeStyle;rounded=0;orthogonalLoop=1;jettySize=auto;html=1;" edge="1" parent="1" source="4q6jls_4rTKLcypTDFWj-7" target="4q6jls_4rTKLcypTDFWj-10">
          <mxGeometry relative="1" as="geometry" />
        </mxCell>
        <mxCell id="4q6jls_4rTKLcypTDFWj-7" value="N chia 2 = 0" style="rhombus;whiteSpace=wrap;html=1;" vertex="1" parent="1">
          <mxGeometry x="434" y="410" width="80" height="80" as="geometry" />
        </mxCell>
        <mxCell id="4q6jls_4rTKLcypTDFWj-8" style="edgeStyle=orthogonalEdgeStyle;rounded=0;orthogonalLoop=1;jettySize=auto;html=1;exitX=0.5;exitY=1;exitDx=0;exitDy=0;entryX=0;entryY=0.5;entryDx=0;entryDy=0;" edge="1" parent="1" target="4q6jls_4rTKLcypTDFWj-13">
          <mxGeometry relative="1" as="geometry">
            <mxPoint x="250" y="480" as="sourcePoint" />
          </mxGeometry>
        </mxCell>
        <mxCell id="4q6jls_4rTKLcypTDFWj-9" style="edgeStyle=orthogonalEdgeStyle;rounded=0;orthogonalLoop=1;jettySize=auto;html=1;exitX=0.5;exitY=1;exitDx=0;exitDy=0;entryX=1;entryY=0.5;entryDx=0;entryDy=0;" edge="1" parent="1" source="4q6jls_4rTKLcypTDFWj-10" target="4q6jls_4rTKLcypTDFWj-13">
          <mxGeometry relative="1" as="geometry" />
        </mxCell>
        <mxCell id="4q6jls_4rTKLcypTDFWj-10" value="lẻ" style="whiteSpace=wrap;html=1;" vertex="1" parent="1">
          <mxGeometry x="630" y="420" width="120" height="60" as="geometry" />
        </mxCell>
        <mxCell id="4q6jls_4rTKLcypTDFWj-11" value="true" style="text;html=1;align=center;verticalAlign=middle;whiteSpace=wrap;rounded=0;" vertex="1" parent="1">
          <mxGeometry x="374" y="420" width="60" height="30" as="geometry" />
        </mxCell>
        <mxCell id="4q6jls_4rTKLcypTDFWj-12" value="fail" style="text;html=1;align=center;verticalAlign=middle;whiteSpace=wrap;rounded=0;" vertex="1" parent="1">
          <mxGeometry x="540" y="420" width="60" height="30" as="geometry" />
        </mxCell>
        <mxCell id="4q6jls_4rTKLcypTDFWj-13" value="end" style="ellipse;whiteSpace=wrap;html=1;" vertex="1" parent="1">
          <mxGeometry x="430" y="600" width="120" height="80" as="geometry" />
        </mxCell>
        <mxCell id="4q6jls_4rTKLcypTDFWj-14" value="chẵn" style="shape=parallelogram;perimeter=parallelogramPerimeter;whiteSpace=wrap;html=1;fixedSize=1;" vertex="1" parent="1">
          <mxGeometry x="200" y="420" width="120" height="60" as="geometry" />
        </mxCell>
      </root>
    </mxGraphModel>
  </diagram>
</mxfile>
